<svg width="17" height="16" viewBox="0 0 17 16" fill="none" xmlns="http://www.w3.org/2000/svg">
<path d="M9.83341 1.51301V4.26671C9.83341 4.64008 9.83341 4.82676 9.90608 4.96937C9.96999 5.09481 10.072 5.1968 10.1974 5.26071C10.34 5.33337 10.5267 5.33337 10.9001 5.33337H13.6538M13.8334 6.65886V11.4667C13.8334 12.5868 13.8334 13.1469 13.6154 13.5747C13.4237 13.951 13.1177 14.257 12.7414 14.4487C12.3136 14.6667 11.7535 14.6667 10.6334 14.6667H6.36675C5.24664 14.6667 4.68659 14.6667 4.25877 14.4487C3.88244 14.257 3.57648 13.951 3.38473 13.5747C3.16675 13.1469 3.16675 12.5868 3.16675 11.4667V4.53337C3.16675 3.41327 3.16675 2.85322 3.38473 2.42539C3.57648 2.04907 3.88244 1.74311 4.25877 1.55136C4.68659 1.33337 5.24664 1.33337 6.36675 1.33337H8.50793C8.99711 1.33337 9.2417 1.33337 9.47188 1.38863C9.67595 1.43763 9.87104 1.51844 10.05 1.62809C10.2518 1.75178 10.4248 1.92473 10.7707 2.27063L12.8962 4.39612C13.2421 4.74202 13.415 4.91497 13.5387 5.1168C13.6484 5.29575 13.7292 5.49084 13.7782 5.69491C13.8334 5.92509 13.8334 6.16968 13.8334 6.65886Z" stroke="#3675E1" stroke-width="1.33333" stroke-linecap="round" stroke-linejoin="round"/>
</svg>
