<svg width="17" height="16" viewBox="0 0 17 16" fill="none" xmlns="http://www.w3.org/2000/svg">
<path d="M8.49992 14.6667V1.33337M5.16659 14.6667V11.3334M5.16659 4.66671V1.33337M11.8333 14.6667V11.3334M11.8333 4.66671V1.33337M1.83325 4.66671H15.1666M1.83325 11.3334H15.1666M15.1666 11.4667V4.53337C15.1666 3.41327 15.1666 2.85322 14.9486 2.42539C14.7569 2.04907 14.4509 1.74311 14.0746 1.55136C13.6467 1.33337 13.0867 1.33337 11.9666 1.33337L5.03325 1.33337C3.91315 1.33337 3.35309 1.33337 2.92527 1.55136C2.54895 1.74311 2.24299 2.04907 2.05124 2.42539C1.83325 2.85322 1.83325 3.41327 1.83325 4.53337L1.83325 11.4667C1.83325 12.5868 1.83325 13.1469 2.05124 13.5747C2.24299 13.951 2.54895 14.257 2.92527 14.4487C3.35309 14.6667 3.91315 14.6667 5.03325 14.6667H11.9666C13.0867 14.6667 13.6467 14.6667 14.0746 14.4487C14.4509 14.257 14.7569 13.951 14.9486 13.5747C15.1666 13.1469 15.1666 12.5868 15.1666 11.4667Z" stroke="#3675E1" stroke-width="1.33333" stroke-linecap="round" stroke-linejoin="round"/>
</svg>
