<svg width="41" height="40" viewBox="0 0 41 40" fill="none" xmlns="http://www.w3.org/2000/svg">
<g clip-path="url(#clip0_504_11117)">
<path d="M30.2 8.3335H10.2C8.35905 8.3335 6.86667 9.82588 6.86667 11.6668V31.6668C6.86667 33.5078 8.35905 35.0002 10.2 35.0002H30.2C32.041 35.0002 33.5333 33.5078 33.5333 31.6668V11.6668C33.5333 9.82588 32.041 8.3335 30.2 8.3335Z" stroke="#3675E1" stroke-width="2" stroke-linecap="round" stroke-linejoin="round"/>
<path d="M26.8667 5V11.6667" stroke="#3675E1" stroke-width="2" stroke-linecap="round" stroke-linejoin="round"/>
<path d="M13.5334 5V11.6667" stroke="#3675E1" stroke-width="2" stroke-linecap="round" stroke-linejoin="round"/>
<path d="M6.86667 18.3335H33.5333" stroke="#3675E1" stroke-width="2" stroke-linecap="round" stroke-linejoin="round"/>
<path d="M20.2 28.3333C21.1205 28.3333 21.8667 27.5871 21.8667 26.6667C21.8667 25.7462 21.1205 25 20.2 25C19.2795 25 18.5334 25.7462 18.5334 26.6667C18.5334 27.5871 19.2795 28.3333 20.2 28.3333Z" stroke="#3675E1" stroke-width="2" stroke-linecap="round" stroke-linejoin="round"/>
</g>
<defs>
<clipPath id="clip0_504_11117">
<rect width="40" height="40" fill="white" transform="translate(0.200012)"/>
</clipPath>
</defs>
</svg>
