<svg width="20" height="20" viewBox="0 0 20 20" fill="none" xmlns="http://www.w3.org/2000/svg">
<g clip-path="url(#clip0_504_11358)">
<path d="M7.50002 9.16667C9.34097 9.16667 10.8334 7.67428 10.8334 5.83333C10.8334 3.99238 9.34097 2.5 7.50002 2.5C5.65907 2.5 4.16669 3.99238 4.16669 5.83333C4.16669 7.67428 5.65907 9.16667 7.50002 9.16667Z" stroke="#667085" stroke-width="1.5" stroke-linecap="round" stroke-linejoin="round"/>
<path d="M2.5 17.5V15.8333C2.5 14.9493 2.85119 14.1014 3.47631 13.4763C4.10143 12.8512 4.94928 12.5 5.83333 12.5H9.16667C10.0507 12.5 10.8986 12.8512 11.5237 13.4763C12.1488 14.1014 12.5 14.9493 12.5 15.8333V17.5" stroke="#667085" stroke-width="1.5" stroke-linecap="round" stroke-linejoin="round"/>
<path d="M13.3333 2.6084C14.0503 2.79198 14.6858 3.20898 15.1397 3.79366C15.5935 4.37833 15.8398 5.09742 15.8398 5.83757C15.8398 6.57771 15.5935 7.2968 15.1397 7.88147C14.6858 8.46615 14.0503 8.88315 13.3333 9.06673" stroke="#667085" stroke-width="1.5" stroke-linecap="round" stroke-linejoin="round"/>
<path d="M17.5 17.5V15.8333C17.4958 15.0976 17.2483 14.384 16.7961 13.8037C16.3439 13.2233 15.7124 12.8089 15 12.625" stroke="#667085" stroke-width="1.5" stroke-linecap="round" stroke-linejoin="round"/>
</g>
<defs>
<clipPath id="clip0_504_11358">
<rect width="20" height="20" fill="#667085"/>
</clipPath>
</defs>
</svg>
