<svg width="45" height="44" viewBox="0 0 45 44" fill="none" xmlns="http://www.w3.org/2000/svg">
<path d="M13.7775 20.3183C14.5998 17.25 17.7537 14.0961 20.822 13.2739L39.9509 8.14748C43.0192 7.32522 44.84 9.14597 44.0177 12.2142L38.8913 31.3432C38.0691 34.4115 34.9152 37.5654 31.8469 38.3877L12.7179 43.514C9.64963 44.3363 7.82888 42.5156 8.65114 39.4473L13.7775 20.3183Z" fill="#2E90FA"/>
<path d="M6.10881 12.6493C6.93108 9.58108 10.085 6.42717 13.1533 5.60491L32.2823 0.478539C35.3505 -0.343724 37.1713 1.47702 36.349 4.54529L31.2226 23.6743C30.4004 26.7426 27.2465 29.8965 24.1782 30.7187L5.0492 35.8451C1.98093 36.6674 0.160173 34.8466 0.982438 31.7783L6.10881 12.6493Z" fill="#175CD3"/>
</svg>
