<svg width="16" height="17" viewBox="0 0 16 17" fill="none" xmlns="http://www.w3.org/2000/svg">
<g clip-path="url(#clip0_517_16697)">
<path d="M9.33333 6.32841C10.0697 6.32841 10.6667 5.73146 10.6667 4.99508C10.6667 4.2587 10.0697 3.66174 9.33333 3.66174C8.59695 3.66174 8 4.2587 8 4.99508C8 5.73146 8.59695 6.32841 9.33333 6.32841Z" stroke="#475467" stroke-width="1.5" stroke-linecap="round" stroke-linejoin="round"/>
<path d="M2.66663 4.99506H7.99996" stroke="#475467" stroke-width="1.5" stroke-linecap="round" stroke-linejoin="round"/>
<path d="M10.6666 4.99506H13.3333" stroke="#475467" stroke-width="1.5" stroke-linecap="round" stroke-linejoin="round"/>
<path d="M5.33333 10.3284C6.06971 10.3284 6.66667 9.73146 6.66667 8.99508C6.66667 8.2587 6.06971 7.66174 5.33333 7.66174C4.59695 7.66174 4 8.2587 4 8.99508C4 9.73146 4.59695 10.3284 5.33333 10.3284Z" stroke="#475467" stroke-width="1.5" stroke-linecap="round" stroke-linejoin="round"/>
<path d="M2.66663 8.99506H3.99996" stroke="#475467" stroke-width="1.5" stroke-linecap="round" stroke-linejoin="round"/>
<path d="M6.66663 8.99506H13.3333" stroke="#475467" stroke-width="1.5" stroke-linecap="round" stroke-linejoin="round"/>
<path d="M11.3333 14.3284C12.0697 14.3284 12.6667 13.7315 12.6667 12.9951C12.6667 12.2587 12.0697 11.6617 11.3333 11.6617C10.597 11.6617 10 12.2587 10 12.9951C10 13.7315 10.597 14.3284 11.3333 14.3284Z" stroke="#475467" stroke-width="1.5" stroke-linecap="round" stroke-linejoin="round"/>
<path d="M2.66663 12.9951H9.99996" stroke="#475467" stroke-width="1.5" stroke-linecap="round" stroke-linejoin="round"/>
<path d="M12.6666 12.9951H13.3333" stroke="#475467" stroke-width="1.5" stroke-linecap="round" stroke-linejoin="round"/>
</g>
<defs>
<clipPath id="clip0_517_16697">
<rect width="16" height="16" fill="white" transform="translate(0 0.995056)"/>
</clipPath>
</defs>
</svg>
